<svg width="46" height="46" viewBox="0 0 46 46" fill="none" xmlns="http://www.w3.org/2000/svg">
<path d="M1.47505 24.599C-0.491683 22.6322 -0.491683 19.4435 1.47505 17.4768L17.4768 1.47505C19.4435 -0.491683 22.6322 -0.491683 24.599 1.47505L40.6007 17.4768C42.5674 19.4435 42.5674 22.6322 40.6007 24.599L24.599 40.6007C22.6322 42.5674 19.4435 42.5674 17.4768 40.6007L1.47505 24.599Z" fill="white" fill-opacity="0.09"/>
<path d="M1.47505 28.5232C-0.491683 26.5565 -0.491683 23.3678 1.47505 21.401L17.4768 5.3993C19.4435 3.43257 22.6322 3.43257 24.599 5.3993L40.6007 21.401C42.5674 23.3678 42.5674 26.5565 40.6007 28.5232L24.599 44.5249C22.6322 46.4917 19.4435 46.4917 17.4768 44.5249L1.47505 28.5232Z" fill="white" fill-opacity="0.09"/>
<path d="M5.3993 28.5232C3.43257 26.5565 3.43257 23.3678 5.3993 21.401L21.401 5.39931C23.3678 3.43258 26.5565 3.43258 28.5232 5.39931L44.5249 21.401C46.4917 23.3678 46.4917 26.5565 44.5249 28.5232L28.5232 44.525C26.5565 46.4917 23.3678 46.4917 21.401 44.525L5.3993 28.5232Z" fill="white" fill-opacity="0.09"/>
</svg>
